<svg class="fill-current mx-auto header_logo__3JSdF" xmlns="http://www.w3.org/2000/svg" viewBox="0 0 1903.07 140.46"><defs></defs><path d="M131.45,181.7c-6.95,0-29.44.2-29.44.2v-6.13c11,0,16.36-3.27,16.36-9.81,0-7.36-13.29-35.37-13.29-35.37H54.58s-2.65,7.57-5.52,15.74c-5.52,15.95-5.92,18-5.92,20.85,0,5.73,7,8.59,16.55,8.59v6.13s-17.78-.2-28.41-.2c-9.41,0-19.83.2-19.83.2v-6.13c7.15,0,11.65-3.27,18.19-14.31,4.91-8.59,15.13-34.55,27.39-65.62,9.61-24.12,20-49.47,21.06-51.72a23.07,23.07,0,0,1,5.11-.61,25.47,25.47,0,0,1,5.93.61C90.56,47.19,109,92.36,121.23,122c12.46,30.25,21.46,47.22,26,50.49,3.88,2.66,9.81,3.27,9.81,3.27v6.13S136.56,181.7,131.45,181.7ZM79.93,68.24l-21.67,53h42.53Z" transform="translate(-11.45 -43.49)"></path><path d="M255.18,176.59c-1.84,5.11-2.45,6.13-5.31,6.13-1.63,0-48.86-1.63-58.67-1.63-9.2,0-26.37.81-26.37.81v-6.13s9.2-.41,12.88-3.68c3.06-2.86,4.7-8.58,4.7-56.62,0-53.16-.61-56-5.11-59.9C174,52.5,164.62,52.1,164.62,52.1V46s15.54.61,26.38.61c9.81,0,28.2-.61,28.2-.61V52.1s-9.81-.21-13.9,3.67c-3.06,3.07-5.31,11.45-5.31,58.88,0,28,.61,45,1,49.06.82,7.36,2.86,8.79,12.68,8.79,13.28,0,22.89-.41,29-4.91s8.38-16.15,9.21-19.62l7.76,2.45A95.44,95.44,0,0,1,255.18,176.59Z" transform="translate(-11.45 -43.49)"></path><path d="M384.84,181.7c-6.95,0-29.43.2-29.43.2v-6.13c11,0,16.35-3.27,16.35-9.81,0-7.36-13.29-35.37-13.29-35.37H308s-2.66,7.57-5.52,15.74c-5.52,15.95-5.93,18-5.93,20.85,0,5.73,7,8.59,16.55,8.59v6.13s-17.78-.2-28.41-.2c-9.4,0-19.83.2-19.83.2v-6.13c7.16,0,11.65-3.27,18.2-14.31,4.9-8.59,15.13-34.55,27.39-65.62,9.61-24.12,20-49.47,21.05-51.72a23.15,23.15,0,0,1,5.11-.61,25.47,25.47,0,0,1,5.93.61c1.43,3.07,19.83,48.24,32.1,77.89,12.47,30.25,21.47,47.22,26,50.49,3.89,2.66,9.82,3.27,9.82,3.27v6.13S390,181.7,384.84,181.7ZM333.33,68.24l-21.67,53h42.51Z" transform="translate(-11.45 -43.49)"></path><path d="M473.6,182.31c-10,0-16.55-.82-26.36-.82-9.21,0-26.38.41-26.38.41v-6.13s9.2-.41,12.89-3.68c3.06-2.86,4.69-7.16,4.69-56.62,0-53.77-.61-56-5.1-59.9-3.28-3.07-12.68-3.47-12.68-3.47V46s15.53.61,26.37.61c2.45,0,20-.81,31.07-.81,23.31,0,38.64,9.4,38.64,29.43,0,28-30.46,35.57-30.46,35.57s36,1.84,36,30.67C522.27,166.37,501.82,182.31,473.6,182.31Zm-4.09-128c-4.69,0-13.28.62-13.28.62s-.41,22.07-.41,32.5c0,7.36.2,20,.2,20s8.39.61,10.84.61c19,0,30.05-9.81,30.05-30.86C496.91,60.89,488.73,54.34,469.51,54.34Zm-3.27,61.13c-4.08,0-10.42.4-10.42.4l.2,26.78c.21,16.56.41,19.84.82,22.08,1.23,7.36,3.68,9,14.51,9,19.63,0,30.26-9.61,30.26-30.26C501.61,123.44,488.52,115.47,466.24,115.47Z" transform="translate(-11.45 -43.49)"></path><path d="M648.08,181.7c-7,0-29.44.2-29.44.2v-6.13c11,0,16.36-3.27,16.36-9.81,0-7.36-13.29-35.37-13.29-35.37h-50.5l-5.51,15.74c-5.52,15.95-5.93,18-5.93,20.85,0,5.73,7,8.59,16.56,8.59v6.13s-17.79-.2-28.42-.2c-9.4,0-19.83.2-19.83.2v-6.13c7.16,0,11.65-3.27,18.2-14.31,4.9-8.59,15.12-34.55,27.39-65.62,9.61-24.12,20-49.47,21.05-51.72a23.18,23.18,0,0,1,5.12-.61,25.43,25.43,0,0,1,5.92.61c1.44,3.07,19.83,48.24,32.1,77.89,12.47,30.25,21.46,47.22,26,50.49,3.88,2.66,9.81,3.27,9.81,3.27v6.13S653.19,181.7,648.08,181.7ZM596.57,68.24l-21.68,53h42.53Z" transform="translate(-11.45 -43.49)"></path><path d="M830.17,181.49c-6.74,0-25.76.41-25.76.41v-6.13s12.47.61,15.13-7.16c1.84-5.51,2-15.53,2-35,0-22.49-2-64.39-2-64.39s-13.08,28-20.65,46c-6.33,15.13-11.25,25.55-27.39,64.39-1,2.66-3.27,2.86-11.65,4.3-4.91-13.5-14.72-39.66-24.74-65-6.13-15.74-16.35-39.86-19.22-46.4-.4,8.79-2.65,47-2.65,82,0,13.9.4,17,3.88,19,2.86,1.84,9.81,2.25,11,2.25v6.13c-1.84,0-15.33-.2-24.12-.2-8.38,0-20.44.2-22.08.2v-6.13c7.77,0,13.08-1,16.35-9.2,3.89-9.2,4.5-32.3,5.73-52.95,1-15.74,1.43-31.07,1.43-40.27,0-18.6-4.7-19.82-19.42-21.25V46s10.84.21,15.74.21c5.93,0,23.92-.62,23.92-.62,4.29,14.11,14.92,40.89,30.46,79.11,6.34,15.74,13.08,33.73,13.08,33.73s33.32-73.18,46.41-105.68c2.86-7,3.47-7.16,5.51-7.16,1.84,0,12.07.62,17,.62,1.23,0,15.33-.21,15.33-.21V52.1c-12.67,0-16.15,3.47-16.15,16.14,0,22.29,1.23,72.16,2.25,84.23,1.64,21.87,3.48,23.3,15.13,23.3v6.13S834.87,181.49,830.17,181.49Z" transform="translate(-11.45 -43.49)"></path><path d="M984,181.7c-7,0-29.44.2-29.44.2v-6.13c11,0,16.36-3.27,16.36-9.81,0-7.36-13.29-35.37-13.29-35.37H907.12s-2.66,7.57-5.52,15.74c-5.52,15.95-5.93,18-5.93,20.85,0,5.73,7,8.59,16.56,8.59v6.13s-17.79-.2-28.41-.2c-9.41,0-19.84.2-19.84.2v-6.13c7.17,0,11.66-3.27,18.2-14.31,4.9-8.59,15.13-34.55,27.4-65.62,9.6-24.12,20-49.47,21-51.72a23.07,23.07,0,0,1,5.11-.61,25.55,25.55,0,0,1,5.93.61c1.43,3.07,19.83,48.24,32.09,77.89,12.47,30.25,21.46,47.22,26,50.49,3.88,2.66,9.82,3.27,9.82,3.27v6.13S989.09,181.7,984,181.7ZM932.47,68.24l-21.67,53h42.52Z" transform="translate(-11.45 -43.49)"></path><path d="M1176.6,174.18c-3.67,5.09-25.84,9.57-44,9.57-33.17,0-71.25-13.85-71.25-67.58,0-53.54,41.53-71.65,79.18-71.65,15.48,0,23.62,1.42,28.7,1.42,3.67,0,9.38-.4,9.38-.4s-.81,10.78-.81,15.67V81.76h-7.54c.2-2.44,1.42-27.88-33.19-27.88-34,0-54.34,22.6-54.34,62.49,0,40.92,23.2,57.19,50.28,57.19,21.17,0,39.08-10,45-27.47l6.71,2.24C1182.71,159.52,1180.06,169.7,1176.6,174.18Z" transform="translate(-11.45 -43.49)"></path><path d="M1320.05,180.28c-9.16,0-26.25,1-26.25,1v-6.09s9.15-.41,12.81-3.68c3.05-2.85,4.48-7.52,4.48-55.77,0,0-32.36-.4-40.09-.4-11,0-34.82.4-34.82.4,0,49.06,1.23,52.52,4.9,55.77,3.86,3.47,13.22,3.68,13.22,3.68v6.09s-17.71-1-26.88-1-26.25,1-26.25,1v-6.09s9.16-.41,12.83-3.68c3.06-2.85,4.68-7.12,4.68-56.38,0-53.53-.61-55.77-5.08-59.65-3.27-3-12.64-3.45-12.64-3.45V45.94s15.48.61,26.26.61c9.77,0,26.06-.61,26.06-.61v6.11s-7.73-.21-11.8,3.66c-2.84,2.86-5.09,10.58-5.3,49.87,0,0,24.43.41,35.63.41,12.42,0,39.28-.82,39.28-.82-.2-43.76-.81-46-4.89-49.67-3.25-3-12.61-3.45-12.61-3.45V45.94s15.46.61,26.27.61c9.75,0,26.05-.61,26.05-.61v6.11s-7.74-.21-11.82,3.66c-3.06,3.06-5.29,11.4-5.29,58.63,0,50.89,1.22,54.14,4.88,57.19,4.08,3.27,13.24,3.68,13.24,3.68v6.09S1329.21,180.28,1320.05,180.28Z" transform="translate(-11.45 -43.49)"></path><path d="M1474.09,181.1c-6.92,0-29.32.2-29.32.2v-6.09c11,0,16.3-3.27,16.3-9.78,0-7.33-13.24-35.22-13.24-35.22h-50.28s-2.64,7.54-5.5,15.67c-5.49,15.88-5.89,17.92-5.89,20.77,0,5.69,6.91,8.56,16.49,8.56v6.09s-17.72-.2-28.3-.2c-9.37,0-19.74.2-19.74.2v-6.09c7.11,0,11.59-3.27,18.11-14.26,4.89-8.55,15.06-34.4,27.28-65.35,9.57-24,19.94-49.25,21-51.49a22.27,22.27,0,0,1,5.09-.62,24.74,24.74,0,0,1,5.92.62c1.42,3,19.72,48,31.94,77.55,12.42,30.13,21.38,47,25.86,50.28,3.86,2.64,9.77,3.27,9.77,3.27v6.09S1479.19,181.1,1474.09,181.1Zm-51.3-113-21.57,52.72h42.34Z" transform="translate(-11.45 -43.49)"></path><path d="M1651.12,58c-4.47,4.47-5.49,13.23-5.9,29.71-.81,25-1,35.42-.81,63.11,0,16.69.81,32.76.81,32.76s-6.1.41-6.72.41c-2.23,0-3.86-.61-5.69-3-1.83-2-34.41-42.13-57.2-68.8-13-15.27-37-42.35-37-42.35l-.21,59.65c0,28.29.21,33.38,4.26,39.49,3,4.47,9.57,6.11,18.12,6.32v6.09s-17.51-.2-28.9-.2c-9.16,0-27.08.2-27.08.2v-6.09c10.39,0,15.07-2.66,17.51-5.1,3.66-3.66,4.68-10.79,5.3-30.13.8-22,.6-51.9.6-60.46,0-7.52-1.22-15.46-5.29-19.73-4.47-4.69-16.69-7.74-16.69-7.74V45.94s12.42.21,21,.21c5.1,0,16.28-.61,16.28-.61s37.25,44.57,48.25,57.8c17.09,21,42.54,48.45,42.54,48.45V129.6c0-12.42,0-47.64-.61-54.14-1.63-17.3-8.35-20-14.86-21.79a57.55,57.55,0,0,0-7.74-1.62V45.94s20,.61,28.51.61c3.46,0,27.88-.61,27.88-.61v6.11S1656.62,52.45,1651.12,58Z" transform="translate(-11.45 -43.49)"></path><path d="M1708.55,180.49c-9.16,0-26.27.81-26.27.81v-6.09s9.17-.41,12.83-3.68c3.06-2.85,4.69-7.12,4.69-56.38,0-53.53-.61-55.77-5.1-59.65-3.25-3-12.62-3.45-12.62-3.45V45.94s15.49.61,26.26.61c9.77,0,26.05-.61,26.05-.61v6.11s-7.72-.21-11.8,3.66c-3,3.06-5.29,11.4-5.29,58.63,0,50.89,1.43,54.14,4.88,57.19,3.88,3.47,13.23,3.68,13.23,3.68v6.09S1717.71,180.49,1708.55,180.49Z" transform="translate(-11.45 -43.49)"></path><path d="M1898.23,58c-4.48,4.47-5.49,13.23-5.9,29.71-.81,25-1,35.42-.81,63.11,0,16.69.81,32.76.81,32.76s-6.1.41-6.72.41c-2.24,0-3.87-.61-5.7-3-1.83-2-34.4-42.13-57.2-68.8-13-15.27-37-42.35-37-42.35l-.21,59.65c0,28.29.21,33.38,4.27,39.49,3.06,4.47,9.57,6.11,18.12,6.32v6.09s-17.5-.2-28.9-.2c-9.15,0-27.07.2-27.07.2v-6.09c10.38,0,15-2.66,17.51-5.1,3.66-3.66,4.67-10.79,5.28-30.13.82-22,.62-51.9.62-60.46,0-7.52-1.23-15.46-5.29-19.73-4.49-4.69-16.7-7.74-16.7-7.74V45.94s12.42.21,21,.21c5.09,0,16.28-.61,16.28-.61s37.25,44.57,48.24,57.8c17.11,21,42.55,48.45,42.55,48.45V129.6c0-12.42,0-47.64-.61-54.14-1.63-17.3-8.35-20-14.86-21.79a57.36,57.36,0,0,0-7.75-1.62V45.94s20,.61,28.52.61c3.45,0,27.88-.61,27.88-.61v6.11S1903.73,52.45,1898.23,58Z" transform="translate(-11.45 -43.49)"></path></svg>