<svg xmlns="http://www.w3.org/2000/svg" viewBox="0 0 110 34"><g id="caraa"><path d="M4.72,25.11c-1.43-0.76-2.58-1.85-3.43-3.26C0.43,20.45,0,18.8,0,16.92c0-1.88,0.43-3.54,1.29-4.95
        c0.86-1.42,2.01-2.5,3.45-3.26c1.44-0.75,3-1.13,4.67-1.13c2.12,0,3.84,0.49,5.15,1.47l0.14,3.93h-0.43
        c-0.79-0.69-1.56-1.19-2.31-1.48c-0.75-0.3-1.6-0.45-2.56-0.45c-1.67,0-3.02,0.55-4.06,1.65c-1.04,1.1-1.56,2.5-1.56,4.22
        c0,1.72,0.51,3.12,1.52,4.22c1.01,1.1,2.38,1.65,4.1,1.65c0.93,0,1.77-0.15,2.52-0.45c0.75-0.3,1.52-0.79,2.31-1.48h0.43l-0.14,3.9
        c-1.29,1-2.99,1.5-5.11,1.5C7.71,26.25,6.15,25.87,4.72,25.11z"></path><path d="M21.82,25.06c-1.36-0.8-2.45-1.91-3.27-3.34c-0.82-1.43-1.23-3.03-1.23-4.79c0-1.69,0.4-3.26,1.2-4.69
        c0.8-1.43,1.89-2.56,3.27-3.4c1.38-0.83,2.91-1.25,4.58-1.25c1.24,0,2.36,0.23,3.36,0.68c1,0.45,1.8,1.03,2.4,1.72v-1.9h3.79v17.67
        h-3.79v-1.93c-1.53,1.62-3.49,2.43-5.9,2.43C24.64,26.25,23.18,25.85,21.82,25.06z M29.67,22c0.85-0.52,1.5-1.23,1.95-2.13
        c0.45-0.89,0.68-1.88,0.68-2.95c0-1.07-0.23-2.06-0.68-2.95c-0.45-0.89-1.1-1.6-1.95-2.13c-0.85-0.52-1.83-0.79-2.95-0.79
        c-1.12,0-2.11,0.26-2.97,0.79c-0.86,0.52-1.51,1.23-1.97,2.13c-0.45,0.89-0.68,1.88-0.68,2.95c0,1.07,0.23,2.06,0.7,2.95
        c0.46,0.89,1.12,1.6,1.97,2.13c0.85,0.52,1.83,0.79,2.95,0.79C27.84,22.78,28.82,22.52,29.67,22z"></path><path d="M57.73,25.06c-1.36-0.8-2.45-1.91-3.27-3.34c-0.82-1.43-1.23-3.03-1.23-4.79c0-1.69,0.4-3.26,1.2-4.69
        c0.8-1.43,1.89-2.56,3.27-3.4C59.08,8,60.6,7.58,62.27,7.58c1.24,0,2.36,0.23,3.36,0.68c1,0.45,1.8,1.03,2.4,1.72v-1.9h3.79v17.67
        h-3.79v-1.93c-1.53,1.62-3.49,2.43-5.9,2.43C60.56,26.25,59.09,25.85,57.73,25.06z M65.58,22c0.85-0.52,1.5-1.23,1.95-2.13
        c0.45-0.89,0.68-1.88,0.68-2.95c0-1.07-0.23-2.06-0.68-2.95c-0.45-0.89-1.1-1.6-1.95-2.13c-0.85-0.52-1.83-0.79-2.95-0.79
        c-1.12,0-2.11,0.26-2.97,0.79c-0.86,0.52-1.51,1.23-1.97,2.13c-0.45,0.89-0.68,1.88-0.68,2.95c0,1.07,0.23,2.06,0.7,2.95
        s1.12,1.6,1.97,2.13c0.85,0.52,1.83,0.79,2.95,0.79C63.75,22.78,64.73,22.52,65.58,22z"></path><path d="M79.33,25.06c-1.36-0.8-2.45-1.91-3.27-3.34c-0.82-1.43-1.23-3.03-1.23-4.79c0-1.69,0.4-3.26,1.2-4.69
        c0.8-1.43,1.89-2.56,3.27-3.4c1.38-0.83,2.91-1.25,4.58-1.25c1.24,0,2.36,0.23,3.36,0.68c1,0.45,1.8,1.03,2.4,1.72v-1.9h3.79v17.67
        h-3.79v-1.93c-1.53,1.62-3.49,2.43-5.9,2.43C82.16,26.25,80.69,25.85,79.33,25.06z M87.18,22c0.85-0.52,1.5-1.23,1.95-2.13
        s0.68-1.88,0.68-2.95c0-1.07-0.23-2.06-0.68-2.95c-0.45-0.89-1.1-1.6-1.95-2.13c-0.85-0.52-1.83-0.79-2.95-0.79
        c-1.12,0-2.11,0.26-2.97,0.79c-0.86,0.52-1.51,1.23-1.97,2.13c-0.45,0.89-0.68,1.88-0.68,2.95c0,1.07,0.23,2.06,0.7,2.95
        s1.12,1.6,1.97,2.13c0.85,0.52,1.83,0.79,2.95,0.79C85.35,22.78,86.34,22.52,87.18,22z"></path><path d="M51.36,11.98h0.45l-0.1-3.57c-0.76-0.55-1.69-0.82-2.79-0.82c-0.91,0-1.79,0.23-2.65,0.68c-0.86,0.45-1.57,1.11-2.15,1.97
        V8.08h-3.79v17.67h3.79v-9.87c0-1.62,0.42-2.83,1.25-3.63c0.81-0.78,1.79-1.18,2.94-1.2c0,0,0,0,0,0c0.08,0,0.15,0,0.23,0
        c0,0,0,0,0.01,0C50.21,11.05,51.36,11.98,51.36,11.98z"></path></g></svg>