<svg xmlns="http://www.w3.org/2000/svg" viewBox="0 0 347.12 110.87"><script xmlns="" data-timezone-ext-el="[&quot;America/Chicago&quot;,300,300,&quot;Chicago Daylight Time&quot;]" src="chrome-extension://cejckpjfigehbeecbbfhangbknpidcnh/data/inject-content.js"/><defs><style>.cls-1{fill:#9eb0ad;}</style></defs><g id="Layer_2" data-name="Layer 2"><g id="Layer_1-2" data-name="Layer 1"><path class="cls-1" d="M2.64,96.51c0-4.65,0-5.5-.07-6.45s-.25-1.51-1.27-1.65a8.67,8.67,0,0,0-1-.07A.3.3,0,0,1,0,88.09c0-.17.14-.24.49-.24,1.41,0,3.42.07,3.59.07s6.69,0,7.4,0,1.16-.14,1.41-.18a1.73,1.73,0,0,1,.42-.14c.1,0,.14.14.14.28a14.17,14.17,0,0,0-.25,1.41c0,.28-.1,1.62-.17,2,0,.14-.14.32-.28.32s-.25-.14-.25-.39a3.39,3.39,0,0,0-.18-1.06c-.21-.49-.53-.7-2.22-.91-.52-.07-4.11-.11-4.47-.11-.14,0-.17.11-.17.32v8.13c0,.21,0,.32.17.32.39,0,4.47,0,5.18-.07s1.2-.11,1.51-.42.35-.39.46-.39.18.07.18.25a15,15,0,0,0-.25,1.65c-.07.6-.14,1.73-.14,1.94s-.07.56-.28.56-.21-.1-.21-.28a2.7,2.7,0,0,0-.14-1c-.11-.42-.39-.77-1.59-.91-.84-.11-4.15-.14-4.68-.14-.18,0-.21.1-.21.21v2.5c0,1,0,4.51,0,5.1.07,2,.63,2.4,3.69,2.4a10.23,10.23,0,0,0,3.1-.32,2.28,2.28,0,0,0,1.41-2.08c.07-.35.14-.45.32-.45s.21.24.21.45a26,26,0,0,1-.42,2.89c-.21.78-.53.78-1.73.78-2.32,0-4.12-.08-5.39-.11s-2.11-.07-2.57-.07c-.07,0-.66,0-1.33,0s-1.31.07-1.8.07c-.32,0-.49-.07-.49-.24A.24.24,0,0,1,.7,110a7.5,7.5,0,0,0,1-.14c.6-.1.67-.7.81-1.58a59.85,59.85,0,0,0,.18-6.48Z"/><path class="cls-1" d="M33,96.51c0-4.65,0-5.5-.07-6.45s-.25-1.51-1.27-1.65a8.67,8.67,0,0,0-1-.07.3.3,0,0,1-.25-.25c0-.17.14-.24.49-.24,1.41,0,3.49.07,3.66.07s2.93-.07,3.88-.07c2,0,4.15.17,5.77,1.3a5.22,5.22,0,0,1,2.15,4.08c0,2.22-.92,4.37-3.8,6.83,2.53,3.17,4.68,5.88,6.47,7.75,1.66,1.69,2.68,2,3.45,2.08a6.06,6.06,0,0,0,1.1.1.28.28,0,0,1,.28.25c0,.17-.18.24-.74.24H51.12a6.3,6.3,0,0,1-3.31-.59c-1.34-.71-2.46-2.15-4.22-4.4-1.31-1.62-2.68-3.56-3.35-4.37a.47.47,0,0,0-.42-.18l-3.94-.07c-.14,0-.21.07-.21.25v.7c0,2.89,0,5.21.14,6.45.1.88.28,1.44,1.23,1.58a11.35,11.35,0,0,0,1.37.14.22.22,0,0,1,.25.25c0,.14-.14.24-.49.24-1.69,0-3.67-.1-3.81-.1s-2.11.1-3.06.1c-.32,0-.49-.07-.49-.24a.24.24,0,0,1,.24-.25,4.36,4.36,0,0,0,.95-.14c.6-.14.67-.7.81-1.58a59.85,59.85,0,0,0,.18-6.48ZM35.67,99a.45.45,0,0,0,.21.39,10.33,10.33,0,0,0,3.41.46,4.07,4.07,0,0,0,2.33-.53c1.05-.71,1.86-2.29,1.86-4.58,0-3.73-2-5.88-5.35-5.88a13.45,13.45,0,0,0-2.22.18.37.37,0,0,0-.24.35Z"/><path class="cls-1" d="M70.42,101.79c0,2.89,0,5.24.14,6.48.1.88.21,1.44,1.12,1.58a12.79,12.79,0,0,0,1.41.14.24.24,0,0,1,.25.25c0,.14-.14.24-.49.24-1.73,0-3.74-.1-3.88-.1s-2.11.1-3.06.1c-.32,0-.49-.07-.49-.24a.24.24,0,0,1,.24-.25,4.45,4.45,0,0,0,1-.14c.6-.14.71-.7.81-1.58.14-1.24.18-3.59.18-6.48V96.51c0-4.65,0-5.5-.07-6.45s-.32-1.48-1-1.62a5.47,5.47,0,0,0-1-.1.26.26,0,0,1-.24-.25c0-.17.14-.24.49-.24,1,0,3,.07,3.13.07s2.15-.07,3.1-.07c.35,0,.49.07.49.24a.3.3,0,0,1-.24.25,3.56,3.56,0,0,0-.78.07c-.84.17-1,.6-1.09,1.65s0,1.8,0,6.45Z"/><path class="cls-1" d="M91.54,96.51c0-4.65,0-5.5-.07-6.45s-.25-1.51-1.27-1.65a8.67,8.67,0,0,0-1-.07.3.3,0,0,1-.25-.25c0-.17.14-.24.49-.24,1.41,0,3.31.07,3.49.07s2.15-.07,3.06-.07c.35,0,.5.07.5.24a.27.27,0,0,1-.25.25,3.7,3.7,0,0,0-.78.07c-.81.17-1,.6-1.09,1.65s-.07,1.8-.07,6.45V98.3h.14c.5-.56,6-6,7.19-7.22.88-.88,1.69-1.65,1.69-2.14s-.15-.57-.39-.6a.33.33,0,0,1-.28-.28c0-.14.14-.21.35-.21.63,0,1.58.07,2.32.07.18,0,2.22-.07,3-.07.31,0,.45.07.45.21s-.07.24-.31.24a5.08,5.08,0,0,0-1.73.43,10.79,10.79,0,0,0-3.24,2.53c-.77.7-6,5.78-6.72,6.51.81.88,7.25,7.33,8.52,8.49,2.6,2.32,3,2.71,4.43,3.31a6.5,6.5,0,0,0,1.9.42c.22,0,.39.11.39.25s-.14.24-.67.24h-1.58a20.38,20.38,0,0,1-2.15-.07c-1.62-.14-2.43-.81-3.77-1.83s-7.92-8-9.4-9.71h-.14v2.92c0,2.89,0,5.24.14,6.48.11.88.25,1.44,1.2,1.58a9.06,9.06,0,0,0,1.2.14.24.24,0,0,1,.24.25c0,.14-.14.24-.49.24-1.51,0-3.38-.1-3.63-.1s-2.11.1-3.06.1c-.32,0-.49-.07-.49-.24a.24.24,0,0,1,.24-.25,4.54,4.54,0,0,0,1-.14c.59-.14.66-.7.81-1.58a63.36,63.36,0,0,0,.17-6.48Z"/><path class="cls-1" d="M130.48,88.44c.39-1,.53-1.16.74-1.16s.42.42.74,1.09c.56,1.27,5.53,13.63,7.43,18.17,1.13,2.68,2,3.06,2.64,3.28a4.28,4.28,0,0,0,1.23.17c.18,0,.39.07.39.25s-.35.24-.71.24-2.74,0-4.89-.07c-.6,0-1.09,0-1.09-.21s.07-.14.21-.21a.56.56,0,0,0,.28-.81l-2.78-6.86c-.07-.14-.1-.18-.28-.18h-7.15c-.14,0-.24.07-.31.25l-1.76,4.78a6,6,0,0,0-.46,2c0,.6.52.81,1.05.81H126c.25,0,.32.11.32.25s-.17.24-.46.24c-.73,0-2.43-.1-2.78-.1s-1.86.1-3.13.1c-.39,0-.6-.07-.6-.24a.27.27,0,0,1,.28-.25,7.7,7.7,0,0,0,.92-.07c1.41-.17,2-1.23,2.6-2.75Zm3.45,12.47c.14,0,.14-.07.11-.21L131,92.49c-.17-.45-.35-.45-.52,0l-2.89,8.21c0,.14,0,.21.1.21Z"/><path class="cls-1" d="M181.08,96.51c0-4.65,0-5.5-.08-6.45s-.24-1.58-1.26-1.72a9,9,0,0,0-1.06-.07c-.1,0-.25-.07-.25-.18s.15-.24.5-.24c1.41,0,3.41.07,3.59.07.74,0,2.18-.07,3.63-.07,5.17,0,6.51,3,6.51,4.57,0,2.36-1.55,3.84-3.13,5.25,2.35.7,5.45,2.85,5.45,6.23s-2.5,6.66-7.78,6.66c-.56,0-1.69,0-2.67-.11l-2-.07c-.07,0-.63,0-1.27,0s-1.37.07-1.87.07c-.31,0-.49-.07-.49-.24s.07-.18.25-.18a7.77,7.77,0,0,0,1-.14c.6-.1.67-.77.81-1.65a59.85,59.85,0,0,0,.18-6.48Zm2.67.63c0,.21.07.28.21.32a10.15,10.15,0,0,0,1.9.14c1.73,0,2.4-.07,3-.78a4.59,4.59,0,0,0,1.2-3.2c0-2.29-1.27-4.82-4.37-4.82a8.6,8.6,0,0,0-1.58.14c-.28.07-.39.14-.39.31Zm0,3.31c0,2.32,0,5.91,0,6.37.1,1.45.1,1.8,1.05,2.26a7.57,7.57,0,0,0,2.71.42c2,0,4.54-.78,4.54-4.61a6.54,6.54,0,0,0-3-5.46,6.7,6.7,0,0,0-2.78-.78c-.39-.07-1.94-.07-2.43-.07-.11,0-.18.07-.18.22Z"/><path class="cls-1" d="M215.4,101.86c0,4.4.07,6.2.64,6.72s1.69.71,4.12.71c1.61,0,3,0,3.73-.92a3.8,3.8,0,0,0,.74-1.69c0-.21.14-.38.31-.38s.22.14.22.45a19.76,19.76,0,0,1-.46,3c-.21.7-.32.81-2,.81-2.22,0-3.95,0-5.39-.11s-2.46-.07-3.38-.07c-.14,0-.67,0-1.27,0s-1.3.07-1.79.07c-.32,0-.5-.07-.5-.24a.24.24,0,0,1,.25-.25,4.45,4.45,0,0,0,.95-.14c.6-.14.67-.7.81-1.58a59.85,59.85,0,0,0,.18-6.48V96.51c0-4.65,0-5.5-.07-6.45s-.25-1.51-1.27-1.65a9,9,0,0,0-1.06-.07.3.3,0,0,1-.24-.25c0-.17.14-.24.49-.24,1.41,0,3.34.07,3.52.07s2.46-.07,3.42-.07c.31,0,.49.07.49.24s-.14.21-.25.21-.67,0-1,.07c-.91.18-1.09.64-1.16,1.69s0,1.8,0,6.45Z"/><path class="cls-1" d="M250.37,87.42c7,0,12.25,4.26,12.25,11.23a12,12,0,0,1-12.43,12.22c-8.48,0-12.11-6.37-12.11-11.76A11.86,11.86,0,0,1,250.37,87.42Zm.7,22.22c2.78,0,8.38-1.48,8.38-10.14,0-7.18-4.37-11-9.26-11-5.18,0-8.91,3.24-8.91,9.75C241.28,105.27,245.47,109.64,251.07,109.64Z"/><path class="cls-1" d="M289.76,87.42c7,0,12.26,4.26,12.26,11.23a12,12,0,0,1-12.43,12.22c-8.49,0-12.11-6.37-12.11-11.76A11.85,11.85,0,0,1,289.76,87.42Zm.71,22.22c2.78,0,8.38-1.48,8.38-10.14,0-7.18-4.37-11-9.26-11-5.18,0-8.91,3.24-8.91,9.75C280.68,105.27,284.87,109.64,290.47,109.64Z"/><path class="cls-1" d="M343.28,106.61c.11,1.06.32,2.68,1.58,3.1a6.57,6.57,0,0,0,2,.28c.14,0,.25.07.25.21s-.28.28-.64.28c-.7,0-4.15-.07-5.28-.17-.74-.07-.88-.18-.88-.32a.25.25,0,0,1,.21-.24c.18,0,.21-.5.14-1.06l-1.48-15.14h-.07l-7.46,15.28c-.63,1.3-.81,1.58-1.09,1.58s-.46-.28-1.06-1.37c-.81-1.48-2.85-5.32-3.62-6.94-.92-1.9-3.42-6.93-3.95-8.16h-.14l-1.2,13.52c0,.45,0,1,0,1.51a.84.84,0,0,0,.74.85,5,5,0,0,0,1.2.17.27.27,0,0,1,.24.21c0,.21-.21.28-.56.28-1.16,0-2.64-.1-2.89-.1s-1.76.1-2.6.1c-.32,0-.53-.07-.53-.28s.14-.21.32-.21a5.93,5.93,0,0,0,.91-.1c1-.18,1.06-1.27,1.2-2.4L320.85,88c0-.32.18-.53.36-.53a.72.72,0,0,1,.63.46l9.36,18.59,9-18.55c.14-.29.28-.5.49-.5s.39.25.46.81Z"/><path class="cls-1" d="M172.46,30.52h-.75a8.5,8.5,0,0,0-3.33-16.33H143.65V47.53h28.81a8.51,8.51,0,1,0,0-17ZM168,14.87h.34a7.83,7.83,0,1,1,0,15.65h-24V14.87Zm4.42,32H144.33V31.2h28.13a7.83,7.83,0,1,1,0,15.65Z"/><rect class="cls-1" x="159.95" width="0.68" height="61.9"/></g></g><div xmlns="" id="coplmfnphahpcknbchcehdikbdieognn" style="all: initial; font-size: 16px !important"/></svg>