<svg width="240" height="32" viewBox="0 0 240 32" fill="none" xmlns="http://www.w3.org/2000/svg">
    <title>
      Logo
    </title>
    <path d="M16.1113 13.4382V2.91992H19.367V29.0486H16.1113V16.5269H3.67304V29.0486H0.417389V2.91992H3.67304V13.4382H16.1113Z" fill="currentColor" stroke="currentColor" stroke-width="0.834783" stroke-miterlimit="10"></path>
    <path d="M34.8105 22.5373L31.8052 29.1321H28.2991L40.8209 1.83472L53.3426 29.1321H49.8365L46.8313 22.5373H34.8105ZM40.8209 8.93037L36.1461 19.5321H45.4122L40.8209 8.93037Z" fill="currentColor" stroke="currentColor" stroke-width="0.834783" stroke-miterlimit="10"></path>
    <path d="M65.6139 29.0486H62.3582V2.91992H65.6139V29.0486Z" fill="currentColor" stroke="currentColor" stroke-width="0.834783" stroke-miterlimit="10"></path>
    <path d="M95.4991 29.0486H91.5756L83.8956 17.946H82.56V29.0486H79.3043V2.91992H83.2278C85.5652 2.91992 88.0696 2.91992 90.1565 4.1721C92.327 5.42427 93.5791 7.92862 93.5791 10.433C93.5791 14.1895 91.0748 17.2782 87.3183 17.779L95.4991 29.0486ZM82.4765 15.2747H83.4783C86.8174 15.2747 90.407 14.6904 90.407 10.5164C90.407 6.42601 86.4835 5.84166 83.3113 5.84166H82.4765V15.2747Z" fill="currentColor" stroke="currentColor" stroke-width="0.834783" stroke-miterlimit="10"></path>
    <path d="M109.106 5.92514V13.2712H118.205V16.2764H109.106V29.1321H105.85V2.91992H118.539V5.92514H109.106Z" fill="currentColor" stroke="currentColor" stroke-width="0.834783" stroke-miterlimit="10"></path>
    <path d="M132.48 29.0486H129.224V2.91992H132.48V29.0486Z" fill="currentColor" stroke="currentColor" stroke-width="0.834783" stroke-miterlimit="10"></path>
    <path d="M145.753 1.66772L165.37 22.2034V2.9199H168.626V30.1338L149.009 9.59816V29.1321H145.753V1.66772Z" fill="currentColor" stroke="currentColor" stroke-width="0.834783" stroke-miterlimit="10"></path>
    <path d="M185.071 29.0486H181.816V2.91992H185.071V29.0486Z" fill="currentColor" stroke="currentColor" stroke-width="0.834783" stroke-miterlimit="10"></path>
    <path d="M205.69 29.0486H202.435V5.92514H196.257V2.91992H211.951V5.92514H205.774V29.0486H205.69Z" fill="currentColor" stroke="currentColor" stroke-width="0.834783" stroke-miterlimit="10"></path>
    <path d="M218.796 2.91992H222.553L228.981 14.106L235.409 2.91992H239.165L230.567 17.6956V29.0486H227.311V17.6956L218.796 2.91992Z" fill="currentColor" stroke="currentColor" stroke-width="0.834783" stroke-miterlimit="10"></path>
</svg>