<svg xmlns="http://www.w3.org/2000/svg" version="1.0" width="400.000000pt" height="118.000000pt" viewBox="0 0 400.000000 118.000000" preserveAspectRatio="xMidYMid meet">

<g transform="translate(0.000000,118.000000) scale(0.100000,-0.100000)" fill="#000000" stroke="none">
<path d="M3677 1111 c-70 -37 -124 -70 -121 -74 4 -3 20 1 36 9 16 8 69 30 119 49 117 45 129 52 123 70 -4 8 -11 15 -18 15 -6 -1 -68 -31 -139 -69z"/>
<path d="M5 939 c4 -6 23 -9 44 -7 l36 3 3 -458 2 -457 -45 0 c-25 0 -45 -4 -45 -10 0 -6 55 -10 145 -10 90 0 145 4 145 10 0 6 -18 10 -40 10 l-40 0 0 176 0 176 48 58 c26 33 50 59 53 59 3 1 70 -105 147 -234 l141 -235 -39 0 c-22 0 -40 -4 -40 -10 0 -6 57 -10 150 -10 93 0 150 4 150 10 0 6 -17 10 -37 10 l-38 0 -173 286 c-165 271 -173 286 -158 307 33 49 220 254 258 285 22 17 51 32 64 32 13 0 24 5 24 10 0 6 -47 10 -121 10 -77 0 -118 -4 -114 -10 3 -5 20 -10 36 -10 33 0 44 -17 35 -55 -5 -20 -282 -361 -362 -445 l-24 -25 0 263 0 262 40 0 c22 0 40 5 40 10 0 6 -55 10 -146 10 -100 0 -143 -3 -139 -11z"/>
<path d="M920 940 c0 -5 3 -9 8 -9 4 1 22 1 40 0 l32 -1 0 -455 0 -455 -40 0 c-22 0 -40 -4 -40 -10 0 -6 117 -10 330 -10 l330 0 0 125 c0 69 -4 125 -8 125 -5 0 -14 -24 -21 -53 -16 -71 -49 -127 -91 -151 -30 -18 -55 -21 -187 -24 l-153 -4 0 226 0 226 88 0 c121 0 168 -23 198 -97 11 -29 24 -50 27 -46 4 3 7 73 7 155 0 149 -9 184 -30 110 -20 -76 -69 -102 -195 -102 l-95 0 2 221 3 221 139 -1 c196 -3 227 -20 267 -153 12 -38 23 -68 25 -68 2 0 4 54 4 120 l0 120 -320 0 c-207 0 -320 -4 -320 -10z"/>
<path d="M1750 939 c0 -7 15 -10 40 -7 l40 4 0 -458 0 -458 -40 0 c-22 0 -40 -4 -40 -10 0 -6 117 -10 330 -10 l330 0 0 125 c0 69 -4 125 -8 125 -4 0 -13 -26 -20 -59 -15 -70 -45 -118 -92 -145 -30 -18 -56 -21 -182 -24 l-148 -4 0 456 0 456 40 0 c22 0 40 5 40 10 0 6 -55 10 -145 10 -99 0 -145 -3 -145 -11z"/>
<path d="M2545 939 c4 -6 23 -9 44 -7 l36 3 3 -458 2 -457 -45 0 c-25 0 -45 -5 -45 -10 0 -7 112 -9 331 -8 l330 3 0 118 c0 121 -5 152 -16 101 -26 -114 -68 -175 -136 -194 -18 -6 -94 -10 -166 -10 l-133 0 0 455 0 455 39 0 c22 0 43 5 46 10 4 6 -47 10 -145 10 -105 0 -149 -3 -145 -11z"/>
<path d="M3340 940 c0 -5 18 -10 40 -10 l40 0 0 -455 0 -455 -40 0 c-22 0 -40 -4 -40 -10 0 -6 117 -10 330 -10 l330 0 0 125 c0 69 -4 125 -8 125 -4 0 -16 -32 -26 -70 -21 -83 -61 -132 -121 -149 -22 -6 -97 -11 -167 -11 l-128 0 0 225 0 225 78 0 c131 0 183 -27 204 -107 5 -24 14 -40 19 -37 13 7 12 304 -1 304 -5 0 -10 -5 -10 -12 0 -6 -9 -31 -20 -54 -29 -59 -65 -74 -179 -74 l-91 0 0 215 c0 118 1 218 3 221 1 3 63 5 137 5 145 -2 184 -12 220 -58 19 -25 44 -86 54 -135 4 -16 11 -28 16 -28 6 0 10 48 10 120 l0 120 -325 0 c-210 0 -325 -4 -325 -10z"/>
</g>
</svg>