<svg xmlns="http://www.w3.org/2000/svg" xmlns:xlink="http://www.w3.org/1999/xlink" version="1.1" id="Layer_1" x="0px" y="0px" viewBox="0 0 205 71" enable-background="new 0 0 205 71" xml:space="preserve"><script xmlns="" data-timezone-ext-el="[&quot;America/Chicago&quot;,300,300,&quot;Chicago Daylight Time&quot;]" src="chrome-extension://cejckpjfigehbeecbbfhangbknpidcnh/data/inject-content.js"/>
<g>
	<path fill="#010101" d="M41.5,1.3h0.7v10.2h5.5v0.7h-6.2V1.3z"/>
	<path fill="#010101" d="M69.5,9.4h-4.8c-0.3,0.9-0.6,1.8-0.9,2.7H63l3.7-10.8h0.9l3.7,10.8h-0.8L69.5,9.4z M66.3,4.7l-1.4,4.1h4.4   L68,4.9c-0.3-0.9-0.6-1.9-0.9-2.7h0C66.8,3,66.6,3.8,66.3,4.7z"/>
	<path fill="#010101" d="M86.8,8.5V1.3h0.7v7c0,1.9,0.9,3.2,2.8,3.2c1.9,0,2.8-1.2,2.8-3.1V1.3h0.7v7.3c0,2.2-1.3,3.6-3.5,3.6   C88.1,12.2,86.8,10.8,86.8,8.5z"/>
	<path fill="#010101" d="M114,7.2h-2.7v5h-0.7V1.3h3.7c1.8,0,3.1,1.1,3.1,2.8c0,1.6-1,2.8-2.6,3l2.5,5h-0.8L114,7.2z M111.2,2v4.6   h2.8c1.5,0,2.6-0.8,2.6-2.4c0-1.5-1.2-2.2-2.5-2.2H111.2z"/>
	<path fill="#010101" d="M133.9,1.3h6.3V2h-5.6v4.2h5v0.7h-5v4.7h6v0.7h-6.7V1.3z"/>
	<path fill="#010101" d="M157.7,2.7C157.7,2.7,157.7,2.7,157.7,2.7l0,9.4H157V1.3h0.8c1.7,3.2,3.4,6.3,5.1,9.5c0,0,0,0,0,0V1.3h0.7   v10.8h-0.8L157.7,2.7z"/>
	<path fill="#010101" d="M8.9,63.6l2.7-6.4h0.7V68h-0.7v-9.2h0c-0.8,1.9-1.6,3.8-2.4,5.7H8.6l-2.4-5.7c0,0,0,0,0,0V68H5.4V57.2h0.8   C7.1,59.4,8,61.5,8.9,63.6L8.9,63.6z"/>
	<path fill="#010101" d="M34.6,65.3h-4.8c-0.3,0.9-0.6,1.8-0.9,2.7h-0.8l3.7-10.8h0.9L36.3,68h-0.8L34.6,65.3z M31.3,60.6l-1.4,4.1   h4.4l-1.3-3.9c-0.3-0.9-0.6-1.9-0.9-2.7h0C31.8,58.9,31.6,59.7,31.3,60.6z"/>
	<path fill="#010101" d="M52.9,58.6C52.9,58.6,52.9,58.6,52.9,58.6l0,9.4h-0.7V57.2h0.8c1.7,3.2,3.4,6.3,5.1,9.5c0,0,0,0,0,0v-9.5   h0.7V68H58L52.9,58.6z"/>
	<path fill="#010101" d="M82.5,61v3.2c0,2.4-1.4,3.9-3.7,3.9c-2.6,0-3.7-1.8-3.7-3.9V61c0-2.1,1.2-3.9,3.7-3.9   C81.1,57.1,82.5,58.8,82.5,61z M75.8,61v3.2c0,1.7,0.9,3.2,3,3.2c1.9,0,3-1.4,3-3.3V61c0-1.8-1.1-3.2-3-3.2   C76.7,57.8,75.8,59.3,75.8,61z"/>
	<path fill="#010101" d="M105.8,61v3.2c0,2.4-1.4,3.9-3.7,3.9c-2.6,0-3.7-1.8-3.7-3.9V61c0-2.1,1.2-3.9,3.7-3.9   C104.4,57.1,105.8,58.8,105.8,61z M99.1,61v3.2c0,1.7,0.9,3.2,3,3.2c1.9,0,2.9-1.4,2.9-3.3V61c0-1.8-1.1-3.2-2.9-3.2   C100,57.8,99.1,59.3,99.1,61z"/>
	<path fill="#010101" d="M128.4,64.4v-1.2h-2.5v-0.7h3.2v1.7c0,2.2-1.3,3.9-3.7,3.9c-2.6,0-3.7-1.8-3.7-3.9v-3.3   c0-2,1.2-3.8,3.7-3.8c1.6,0,2.8,0.8,3.4,2c-0.1,0-0.5,0.3-0.6,0.3c-0.4-1-1.4-1.7-2.7-1.7c-2.1,0-3,1.5-3,3.2v3.2   c0,1.7,0.9,3.2,3,3.2C127.3,67.5,128.4,66,128.4,64.4z"/>
	<path fill="#010101" d="M146.1,57.2h5.2v0.6H149v9.5h2.4V68h-5.2v-0.6h2.1v-9.5h-2.1V57.2z"/>
	<path fill="#010101" d="M174.3,65.3h-4.8c-0.3,0.9-0.6,1.8-0.9,2.7h-0.8l3.7-10.8h0.9L176,68h-0.8L174.3,65.3z M171.1,60.6   l-1.4,4.1h4.4l-1.3-3.9c-0.3-0.9-0.6-1.9-0.9-2.7h0C171.6,58.9,171.4,59.7,171.1,60.6z"/>
	<path fill="#010101" d="M192.7,58.6C192.7,58.6,192.7,58.6,192.7,58.6l0,9.4h-0.7V57.2h0.8c1.7,3.2,3.4,6.3,5.1,9.5c0,0,0,0,0,0   v-9.5h0.7V68h-0.8L192.7,58.6z"/>
</g>
<div xmlns="" id="coplmfnphahpcknbchcehdikbdieognn" style="all: initial; font-size: 16px !important"/></svg>