<svg xmlns="http://www.w3.org/2000/svg" viewBox="0 0 298.162 114.48">
  <title>lindye-galloway-logo-one-color-rgb</title>
  <g id="black-rgb">
    <g>
      <path id="fullLogo" d="M0,1.0347H6.8278v58.75H30.37v2.2589H0Z"></path>
      <path id="fullLogo-2" data-name="fullLogo" d="M49.0739,1.0347h6.7826V62.0433H49.0739Z"></path>
      <path id="fullLogo-3" data-name="fullLogo" d="M124.1192,1.0347V63.0753L79.0589,11.86V62.0433H76.8V0l45.06,51.17V1.0347Z"></path>
      <path id="fullLogo-4" data-name="fullLogo" d="M143.5379,62.0433V1.0347h15.7249c18.06,0,32.8862,12.6688,32.8862,30.5029,0,17.8369-14.8259,30.5057-32.8862,30.5057Zm6.8278-1.2581h8.7163c14.0173,0,25.7871-11.4107,25.7871-29.2476,0-17.8341-11.77-29.2475-25.7871-29.2475h-8.7163Z"></path>
      <path id="fullLogo-5" data-name="fullLogo" d="M220.2,34.6842,200.3413,1.0347H207.98l18.6972,31.7364L244.6721,1.0347h2.4823l-20.127,34.3677V62.0433H220.2Z"></path>
      <path id="fullLogo-6" data-name="fullLogo" d="M271.4307,3.2909V29.2787h22.3745v2.2589H271.4307V59.7844H298.162v2.2589H264.6029V1.0347H298.162V3.2909Z"></path>
      <path id="fullLogo-7" data-name="fullLogo" d="M66.4523,92.6166v2.03A16.5511,16.5511,0,0,0,58.2153,92.3a10.3984,10.3984,0,0,0-7.3718,17.5959,10.5818,10.5818,0,0,0,7.8709,2.9205,13.72,13.72,0,0,0,6.3719-1.4309v-6.272H60.1787v-1.4991h6.722v8.9025a18.991,18.991,0,0,1-8.2528,1.9634,12.6125,12.6125,0,0,1-9.0262-3.4276,11.9029,11.9029,0,0,1-.0665-17.03,12.426,12.426,0,0,1,8.9263-3.3864A19.2507,19.2507,0,0,1,66.4523,92.6166Z"></path>
      <path id="fullLogo-8" data-name="fullLogo" d="M85.4506,90.7689l10.7471,23.4116H94.312l-3.678-8.0373H79.2673l-3.6637,8.0373H73.7179L84.4634,90.7689Zm4.4988,13.8784-5.009-10.95-4.9917,10.95Z"></path>
      <path id="fullLogo-9" data-name="fullLogo" d="M105.5756,90.9369V112.683h11.4967v1.4975H103.7787V90.9369Z"></path>
      <path id="fullLogo-10" data-name="fullLogo" d="M126.3377,90.9369V112.683h11.4966v1.4975H124.5407V90.9369Z"></path>
      <path id="fullLogo-11" data-name="fullLogo" d="M156.614,90.6358a12.1036,12.1036,0,0,1,8.744,3.47,11.7544,11.7544,0,0,1,0,16.905,12.7133,12.7133,0,0,1-17.4548,0,11.7943,11.7943,0,0,1,0-16.905A12.0267,12.0267,0,0,1,156.614,90.6358Zm.0665,22.18a9.9942,9.9942,0,0,0,7.329-2.97,10.3838,10.3838,0,0,0,0-14.5756,9.9893,9.9893,0,0,0-7.329-2.9712,10.1251,10.1251,0,0,0-7.38,2.9712,10.3027,10.3027,0,0,0,0,14.5756A10.13,10.13,0,0,0,156.6805,112.8161Z"></path>
      <path id="fullLogo-12" data-name="fullLogo" d="M191.66,94.7971l-7.7917,19.6164h-.4849l-9.3526-23.4766h1.8446l7.6982,19.2836,7.8012-19.2836h.5578l7.7632,19.2836,7.7156-19.2836h1.8445l-9.3731,23.4766H199.45Z"></path>
      <path id="fullLogo-13" data-name="fullLogo" d="M223.7777,90.7689l10.747,23.4116H232.639l-3.678-8.0373H217.5944l-3.6637,8.0373h-1.8858L222.79,90.7689Zm4.4988,13.8784-5.0091-10.95-4.9916,10.95Z"></path>
      <path id="fullLogo-14" data-name="fullLogo" d="M255.8668,90.9369l-9.0341,10.7645v12.4791h-1.797V101.7014L236,90.9369h2.1726l7.7711,9.2084,7.73-9.2084Z"></path>
    </g>
  </g>
</svg>