<svg width="159" height="56" viewBox="0 0 159 56" fill="none" xmlns="http://www.w3.org/2000/svg">
<path d="M0 45.9377V22.1907H10.9261C12.7072 22.1907 14.196 22.781 15.4188 23.9348C16.6417 25.0618 17.2531 26.5108 17.2531 28.2549C17.2531 30.5357 16.1366 32.2261 14.2491 33.0311C17.3063 33.6751 18.9811 35.9022 18.9811 38.9343C18.9811 40.9468 18.3165 42.6372 16.9341 43.9789C15.5783 45.2937 13.9035 45.9645 11.83 45.9645H0V45.9377ZM6.40679 31.6626H9.51714C10.6868 31.6626 11.511 30.7772 11.511 29.516C11.511 28.3354 10.6337 27.4499 9.51714 27.4499H6.40679V31.6626ZM6.40679 40.6248H10.3944C11.7768 40.6248 12.787 39.632 12.787 38.3172C12.787 37.056 11.8034 36.1169 10.3678 36.1169H6.40679V40.6248Z" fill="#161C0D"></path>
<path d="M21.7725 45.9377V22.1907H39.1054V28.0134H28.1793V31.287H38.361V36.5999H28.1793V40.1955H39.3712V45.9377H21.7725Z" fill="#161C0D"></path>
<path d="M40.7537 45.9376L50.324 22.2175H56.1991L65.7694 45.9376H59.017L57.7941 42.8519H48.7555L47.506 45.9376H40.7537ZM50.4303 37.8341H56.0927L53.2482 30.482L50.4303 37.8341Z" fill="#161C0D"></path>
<path d="M67.9226 45.9377V22.1907H78.6095C80.9489 22.1907 82.9161 22.9688 84.5909 24.5788C86.2391 26.1888 87.0632 28.0939 87.0632 30.3747C87.0632 33.4068 85.4682 36.0364 83.049 37.1634L88.9241 45.9377H81.5603L76.7751 38.5587H76.6954H74.3294V45.9377H67.9226ZM74.3294 33.3531H77.8917C79.6197 33.3531 80.6564 32.3335 80.6564 30.5625C80.6564 29.0599 79.6728 28.0402 78.4234 28.0402H74.3028V33.3531H74.3294Z" fill="#161C0D"></path>
<path d="M90.8647 45.9377V22.1907H100.408C104.502 22.1907 107.586 23.2908 109.74 25.4911C111.919 27.6914 113.009 30.5625 113.009 34.1044C113.009 37.7268 111.919 40.5711 109.766 42.7177C107.639 44.8644 104.502 45.9108 100.408 45.9108H90.8647V45.9377ZM97.2715 40.0613H100.036C102.748 40.0613 104.582 39.4441 105.433 38.2635C106.337 37.0829 106.576 35.8754 106.576 34.1044C106.576 32.3603 106.337 31.1797 105.433 30.0527C104.529 28.9257 102.721 28.3085 100.01 28.3085H97.2715V40.0613Z" fill="#161C0D"></path>
<path d="M115.96 45.9377V22.1907H133.293V28.0134H122.367V31.287H132.549V36.5999H122.367V40.1955H133.559V45.9377H115.96Z" fill="#161C0D"></path>
<path d="M136.829 45.9377V22.1907H146.372C150.466 22.1907 153.55 23.2908 155.703 25.4911C157.883 27.6914 158.973 30.5625 158.973 34.1044C158.973 37.7268 157.883 40.5711 155.73 42.7177C153.603 44.8644 150.466 45.9108 146.372 45.9108H136.829V45.9377ZM143.235 40.0613H146C148.712 40.0613 150.546 39.4441 151.397 38.2635C152.301 37.0829 152.54 35.8754 152.54 34.1044C152.54 32.3603 152.301 31.1797 151.397 30.0527C150.493 28.9257 148.685 28.3085 145.974 28.3085H143.235V40.0613Z" fill="#161C0D"></path>
<path class="logo-svg-path-top-line-left" d="M60.3993 11.0551H0V12.2089H60.3993V11.0551Z" fill="#161C0D"></path>
<path class="logo-svg-path-top-line-bottom" d="M159 54.8462H0V56H159V54.8462Z" fill="#161C0D"></path>
<path d="M159 11.055H94.693C94.7196 11.0014 94.1613 11.7259 94.1613 11.7259C92.4599 13.7115 90.28 15.3215 88.6052 15.3215C87.1431 15.3215 86.2924 14.4091 87.3823 12.4772L87.6216 12.0747C89.1369 12.7187 92.008 12.4235 93.7891 9.31091L94.1347 8.72059C95.4108 6.5203 94.1879 4.85667 92.2472 4.85667C90.3332 4.85667 88.8179 5.87632 87.8077 7.62045L85.5215 11.5917L85.3885 11.7527C84.1125 13.148 81.8794 13.4432 83.1289 10.8672L86.9304 5.0445H84.8037L79.4868 13.0943C78.0513 15.2678 77.8918 15.3215 78.7956 13.0138L81.9592 5.0445H79.5666L76.9879 11.538L76.8284 11.699C75.127 13.6847 73.4522 15.2946 72.4154 15.2946C71.8838 15.2946 71.5913 14.919 72.1496 13.9798L77.2272 5.0445H74.8612L71.166 11.538L71.0065 11.7259C69.3051 13.7115 67.6303 15.3215 66.5935 15.3215C66.0618 15.3215 65.7694 14.9458 66.3277 14.0066L74.3029 -6.10352e-05H71.9369L64.2807 13.3627C63.2705 15.1336 63.9883 16.7704 65.9023 16.7704C67.0986 16.7704 68.4012 15.9923 69.6773 14.8385C69.6507 15.9386 70.395 16.7704 71.7508 16.7704C73.08 16.7704 74.5688 15.7776 75.9777 14.436C75.446 17.3876 78.7425 17.4681 80.3907 14.9458L81.6136 13.0943C82.0655 14.0066 83.315 14.436 84.6973 13.7652C84.5644 15.4825 85.8139 16.7973 87.914 16.7973C90.28 16.7973 92.8055 15.3751 95.3576 12.2357H159.027V11.055H159ZM89.8015 8.18394C91.1573 5.82265 93.5765 6.19831 92.1675 8.69376L91.8219 9.28408C90.6788 11.2429 89.1635 11.1892 88.2596 10.8672L89.8015 8.18394Z" fill="#161C0D"></path>
<path d="M77.5196 3.83708C78.2906 3.83708 78.902 3.24676 78.902 2.46861C78.902 1.69046 78.2906 1.0733 77.5196 1.0733C76.7487 1.0733 76.1638 1.69046 76.1638 2.46861C76.1638 3.24676 76.7487 3.83708 77.5196 3.83708Z" fill="#161C0D"></path>
<defs>
<rect width="159" height="56" fill="white"></rect>
</defs>
</svg>