<svg aria-hidden="true" class="w-44 xl:w-56" xmlns="http://www.w3.org/2000/svg" fill="none" viewBox="0 0 618 70">
  <path d="M61.447.25c-.076.202-.706 1.908-1.388 3.764-1.74 4.667-10.745 29.004-17.253 46.667-3.002 8.079-5.55 15.004-5.7 15.38l-.278.702 3.077-.075 3.052-.075 1.16-3.136 1.161-3.136H78.07l1.135 3.136 1.135 3.136 2.977.075c1.614.025 2.95-.025 2.95-.125s-.907-2.635-1.992-5.595c-1.11-2.96-4.465-12.068-7.466-20.197C63.843 5.57 62.002.652 61.8.25c-.202-.326-.227-.326-.353 0Zm4.01 26.22c2.044 5.52 4.314 11.666 5.046 13.673A2167.48 2167.48 0 0 0 73.755 49c1.06 2.885 1.918 5.344 1.918 5.47 0 .125-5.802.225-14.152.225-13.368 0-14.15-.025-13.974-.451.227-.552 13.47-36.33 13.798-37.258.151-.377.303-.678.328-.628.05.05 1.74 4.592 3.784 10.112ZM159.116 2.283c-10.392 1.204-20.255 8.079-25.174 17.563-2.447 4.742-3.531 9.233-3.557 14.928-.025 6.9 1.69 12.67 5.348 18.09 3.859 5.67 9.812 10.437 15.866 12.695 9.056 3.362 19.902 2.459 28.025-2.333l1.715-1.004-1.514-2.358-1.513-2.359-1.438.828c-3.96 2.334-8.652 3.488-14.176 3.463-4.591-.025-7.391-.678-11.477-2.685-8.047-3.99-13.571-11.44-14.883-20.122-1.286-8.455 1.085-16.233 6.836-22.38 1.867-2.007 4.843-4.34 7.214-5.67 3.935-2.133 9.233-3.337 13.924-3.086 4.541.251 7.315.953 11.452 2.986 1.438.702 2.624 1.23 2.649 1.179.05-.05.731-1.104 1.538-2.308.782-1.23 1.413-2.258 1.363-2.283-.707-.578-4.112-2.334-5.802-3.011-5.196-2.058-10.67-2.785-16.396-2.133ZM19.549 3.161c-6.81 1.43-12.133 5.921-14.176 11.993-.63 1.832-.681 2.384-.706 5.796 0 4.14.302 5.52 1.942 8.756 1.236 2.434 1.866 3.212 7.769 9.71 5.928 6.498 6.609 7.502 7.113 10.261 1.135 6.524-4.918 12.545-11.401 11.29-1.715-.325-3.658-1.254-4.717-2.257-.454-.402-.908-.753-1.01-.753-.1 0-1.11.853-2.219 1.882L.126 61.72l1.261 1.129c3.683 3.261 9.258 4.616 14.05 3.412 10.897-2.785 15.463-15.857 8.551-24.538-.555-.702-3.178-3.638-5.852-6.498-5.221-5.645-6.432-7.276-7.29-9.71-.756-2.158-.933-5.369-.403-7.401.48-1.932 2.119-4.717 3.607-6.222 1.564-1.556 4.263-2.785 6.836-3.162l2.068-.3V3.01l-1.438.025c-.807.025-1.69.075-1.967.125ZM81.727 5.77v2.76h18.414v58.208h5.802V8.53h18.414V3.01h-42.63v2.76ZM193.472 34.875v31.863h5.801V49.176l20.003.05 19.978.075.076 8.706.05 8.731h5.55V3.011h-5.55V43.656h-40.107V3.01h-5.801v31.864ZM259.812 34.875v31.863H287.811v-5.52H265.614V47.922H285.793v-5.52l-10.014-.05-10.039-.075-.076-16.86-.05-16.886 9.964-.05 9.988-.075.051-2.71.05-2.684H259.812v31.864ZM300.045 3.312c-.075.175-.101 14.502-.075 31.814l.075 31.487 13.445.075 13.419.05v-5.52h-21.188V3.012h-2.775c-1.993 0-2.825.1-2.901.3ZM496.034 3.262c-.202.401-1.059 2.634-1.942 4.992-.858 2.334-2.144 5.796-2.825 7.653a11807.57 11807.57 0 0 0-8.804 23.835c-1.261 3.387-2.497 6.699-2.749 7.401-1.463 3.789-8.072 21.803-8.072 22.004 0 .1 1.337.2 3.002.2h2.976l1.211-3.261 1.185-3.262 12.764-.05c7.038-.05 14.403-.05 16.346 0l3.581.075.681 1.932c.404 1.054.934 2.534 1.186 3.237l.479 1.33h3.027c1.64 0 3.002-.076 3.002-.15 0-.076-1.463-4.09-3.254-8.958-1.791-4.867-5.701-15.43-8.677-23.509-10.746-29.154-12.007-32.516-12.36-33.344l-.379-.878-.378.753Zm1.564 18.591c.605 1.63 2.094 5.72 3.355 9.108 2.194 6.021 3.001 8.154 7.365 20.021 1.186 3.237 2.17 5.921 2.17 5.971 0 .05-6.357.1-14.126.1-7.769 0-14.126-.05-14.126-.075 0-.1 1.842-5.068 9.863-26.67 2.194-5.971 4.011-10.964 4.011-11.114 0-.904.555.1 1.488 2.659ZM553.117 4.993c-7.038 1.154-12.511 4.014-17.783 9.258-4.692 4.667-7.442 9.459-9.006 15.68-.479 1.883-.554 2.836-.554 7.553 0 4.993.05 5.57.655 7.803 1.665 6.096 4.415 10.889 8.854 15.304 4.389 4.391 9.182 7.1 15.261 8.681 2.497.628 3.077.703 7.492.703 3.834 0 5.196-.1 6.81-.477 3.91-.903 7.492-2.358 11.427-4.616l1.564-.904V46.265H557.91v5.52h14.378v4.491c0 5.219.302 4.642-3.406 6.172-7.34 3.036-15.967 2.66-22.878-.928-7.189-3.739-12.411-10.438-14.252-18.24-.353-1.456-.454-2.91-.429-6.047.025-3.613.101-4.44.681-6.573 1.892-7.126 6.508-13.022 13.167-16.86 7.719-4.442 17.96-4.542 26.082-.252 1.161.602 2.144 1.104 2.195 1.104.05 0 .782-1.053 1.589-2.308l1.513-2.308-.681-.477c-2.345-1.58-6.81-3.412-10.392-4.215-2.876-.677-9.358-.853-12.36-.351ZM374.023 5.77c-4.439 1.18-7.895 4.843-8.829 9.309-.58 2.71.101 6.021 1.766 8.706.429.677.732 1.254.706 1.28-.05.025-.706.376-1.463.752-5.65 2.835-9.56 7.326-11.578 13.323-2.295 6.85-1.336 14.677 2.523 20.347 3.254 4.793 8.324 8.43 13.722 9.91 2.901.779 8.929.779 11.881.026 3.733-.979 6.836-2.685 9.787-5.37.782-.702 1.463-1.254 1.513-1.203.026.05 1.085 1.53 2.321 3.286l2.245 3.212h3.33c1.841 0 3.354-.076 3.354-.15 0-.076-1.74-2.66-3.884-5.721l-3.91-5.57.883-2.183c.933-2.308 1.463-4.516 1.74-7.276l.177-1.681h-5.776l-.152 1.806c-.075 1.004-.277 2.258-.429 2.785l-.277.954-2.598-3.713c-14.857-21.276-19.801-28.402-20.079-28.929-.555-1.003-.429-3.713.202-4.917.958-1.882 3.481-3.613 5.196-3.613.353 0 .404-.377.404-2.886V5.37l-.681.025c-.404 0-1.337.176-2.094.377Zm6.962 38.237 9.661 13.925-1.892 1.831c-2.093 2.033-4.666 3.463-7.668 4.24-2.169.553-6.382.553-8.576 0-5.701-1.48-10.62-5.996-12.638-11.616-.832-2.308-.958-7.351-.277-10.086 1.16-4.541 3.279-7.652 6.835-10.086 1.363-.928 4.137-2.283 4.516-2.208.201.05 4.717 6.348 10.039 14ZM436.075 37.358v31.99h5.55V58.559h1.589c.858 0 2.598-.175 3.834-.376 5.474-.878 9.787-3.061 13.949-7 3.557-3.387 5.55-6.448 6.962-10.714 3.229-9.684.706-20.071-6.609-27.247-2.421-2.383-4.666-3.939-7.668-5.344-3.834-1.781-8.046-2.509-14.504-2.509h-3.103v31.99Zm11.982-25.591c2.094.552 5.272 2.083 7.063 3.462 6.811 5.144 9.737 12.796 7.971 20.7-1.135 4.942-2.724 7.978-5.726 10.888-4.086 3.914-8.45 5.821-13.722 5.997l-1.892.05V48.95c0-2.158.025-11.567.076-20.9l.05-16.986 2.346.151c1.261.075 3.002.326 3.834.552ZM590.121 5.545c-.101.075-.176 14.476-.176 31.99v31.813l12.889-.05 12.89-.076v-5.52l-9.989-.075-9.989-.05v-33.62h20.205l-.075-2.76-.076-2.785-9.964-.05-9.963-.05-.076-6.599-.051-6.573h22.198V5.369h-13.823c-7.618 0-13.924.075-14 .176Z" fill="#000"></path>
</svg>