<svg xmlns="http://www.w3.org/2000/svg" xmlns:xlink="http://www.w3.org/1999/xlink" version="1.1" id="Layer_1" x="0px" y="0px" viewBox="0 0 125.6 95" style="enable-background:new 0 0 125.6 95;" xml:space="preserve"><script xmlns="" data-timezone-ext-el="[&quot;America/Chicago&quot;,300,300,&quot;Chicago Daylight Time&quot;]" src="chrome-extension://cejckpjfigehbeecbbfhangbknpidcnh/data/inject-content.js"/>
<style type="text/css">
	.st0{fill:#FFFFFF;}
	.st1{fill:#765FA6;}
	.st2{fill:#FCE533;}
</style>
<g>
	<g>
		<path class="st0" d="M109.8,20.3c-0.7-0.7-1.6-1.4-2.4-2.1C97.6,10.1,82,6,60.9,6c-24.1,0-40.3,6.2-48.5,18.3    c-4.5,6.3-6.7,14.2-6.7,23.8c0,11.3,4.3,20.8,12.2,28c0.6,0.7,1.3,1.3,2.1,1.9c9.8,8,23.9,12.2,40.9,12.2    c20.7,0,36.3-4.5,46.3-12.8c8.6-7.1,13-16.9,13-29.4C120.2,36.1,116.8,27.1,109.8,20.3z M104.85,76.04    C95.23,83.51,80.34,87.3,60.6,87.3c-15.94,0-29.32-3.79-38.68-10.96C12.88,69.41,8.1,59.61,8.1,48c0-13.16,4.13-22.73,12.62-29.24    C29.43,12.09,42.84,8.7,60.6,8.7c22.25,0,38.17,4.5,47.31,13.37c6.45,6.28,9.59,14.79,9.59,26.03    C117.5,60.2,113.35,69.34,104.85,76.04z"/>
		<path class="st1" d="M60.8,4c-20.3,0-35.5,4.3-45,12.8C7.5,24.1,3.2,34.7,3.2,48.1c0,12.4,5.3,23.5,14.8,31.3    c10.2,8.3,25,12.8,42.7,12.8c39.9,0,61.8-15.7,61.8-44.1C122.6,18.8,101.8,4,60.8,4z M60.9,90.2C43.9,90.2,29.8,86,20,78    c-0.8-0.6-1.5-1.2-2.1-1.9C10,68.9,5.7,59.4,5.7,48.1c0-9.6,2.2-17.5,6.7-23.8C20.6,12.2,36.8,6,60.9,6c21.1,0,36.7,4.1,46.5,12.2    c0.8,0.7,1.7,1.4,2.4,2.1c7,6.8,10.4,15.8,10.4,27.7c0,12.5-4.4,22.3-13,29.4C97.2,85.7,81.6,90.2,60.9,90.2z"/>
	</g>
	<path class="st1" d="M108.2,21.2C98.9,12.2,83,7.7,60.9,7.7C25.5,7.7,7.6,21.3,7.6,48.1c0,24.5,20.9,40.4,53.3,40.4   c19.4,0,34.2-3.9,44-11.4c8.9-6.8,13.4-16.6,13.4-29C118.3,36.6,115,27.8,108.2,21.2z"/>
	<path class="st0" d="M15.7,37.3c0-4.5,2.3-8.3,7.1-8.3c4,0,6,3.3,6,5.7c0,0.7-0.5,1.3-1.3,1.3c-0.3,0-0.7-0.2-0.9-0.6   c-0.4-0.8-1.1-3.6-3.8-3.6c-2.4,0-4.2,2.4-4.2,5.6c0,1.1,0.1,2.1,0.4,3.1c1.5,5.2,8.1,8.4,8.1,13.9c0,3.4-2.3,5.7-5.7,5.7   c-3.5,0-5.2-3.2-5.2-4.6c0-0.9,0.6-1.3,1.1-1.3c1.4,0,1.2,3.1,4.1,3.3c1.7,0,2.7-1.5,2.7-3C24.2,49.5,15.7,46.6,15.7,37.3   L15.7,37.3z"/>
	<path class="st0" d="M51.4,45.8c0-4.1-1.7-5-4.1-5c-2,0-3.6,1.8-3.6,4.9v12.2c0,1.1-0.2,1.9-1.4,1.9c-0.9,0-1.4-0.6-1.4-1.9V45.8   c0-4.3-1.8-5-4.1-5c-2,0-3.6,1.8-3.6,4.9v12.1c0,1.5-0.4,2-1.5,2c-0.8,0-1.3-0.6-1.3-2v-18c0-1,0.2-1.8,1.4-1.8   c1.1,0,1.3,0.7,1.3,1c0,0,0,0.3,0.2,0.3s0.3-0.1,0.5-0.2c0.7-0.5,1.9-1.1,3.4-1.1c1.9,0,3.7,0.6,4.8,1.9c0.1,0.1,0.2,0.3,0.4,0.3   s0.2,0,0.2,0c0.3-0.2,2.3-2.2,5-2.2c4.6,0,6.5,2.5,6.5,7.7V58c0,1-0.2,1.8-1.4,1.8S51.3,59,51.3,58L51.4,45.8L51.4,45.8z"/>
	<path class="st0" d="M58.6,39.9c0-1,0.2-1.8,1.4-1.8s1.3,0.8,1.3,1.8v15c0,0.9,0.2,2.5,2.2,2.5c0.8,0,1.8,0.2,1.8,1.1   c0,0.2,0,0.3-0.1,0.5c-0.2,0.8-1.1,1-1.8,1c-3.1,0-4.8-2.1-4.8-4.9L58.6,39.9L58.6,39.9z"/>
	<path class="st0" d="M66.6,49.5v-0.6c0-6.3,2.4-10.7,6.8-10.7c1.7,0,2.7,0.8,3.3,1.2c0.1,0.1,0.2,0.1,0.3,0.1   c0.1,0,0.2-0.1,0.2-0.3V31c0-1,0.2-1.8,1.4-1.8c1.2,0,1.4,0.8,1.4,1.8v27.4c0,1.5-3.9,1.7-5.3,1.7C70.5,60,66.6,57.1,66.6,49.5   L66.6,49.5z M77.1,45.9c0-3.3-1.6-5.1-3.6-5.1c-3.2,0-4.1,4.4-4.1,8v0.6c0,6.6,2.8,7.8,5.4,7.8c0.4,0,1.3,0,1.6-0.1   c0.6-0.2,0.7-0.7,0.7-1.5V45.9L77.1,45.9z"/>
	<path class="st0" d="M90.5,68.9c-5.3,0-7.2-2.8-7.2-5.5c0-2.5,1.7-3.7,2.5-4.3c-0.6-0.4-0.9-0.9-0.9-2.3c0-1.2,1.2-2,1.4-2.1   c-0.9-1.2-3-2.8-3-7.7c0-6.3,3.5-8.9,6.9-8.9c2,0,2.4,0.5,3.2,0.5c0.2,0,0.6,0,0.9-0.7c0.2-0.4,0-1.7,0.4-2.1   c0.3-0.3,0.7-0.5,1.1-0.5c0.3,0,0.6,0.1,0.7,0.3c0.4,0.4,0.6,0.8,0.6,1.7c0,1.2-0.3,2.1-0.9,3.1c-0.2,0.3-0.4,0.5-0.4,0.7   c0,0.3,0.3,0.8,0.5,1.2c0.3,0.7,0.9,2.1,0.9,4.8c0,5.3-2.9,8.9-6.9,8.9H90c-0.6,0-2.1,0.2-2.1,0.9c0,0.6,0.5,0.9,2.4,0.9   c4.5,0,6.9,2.1,6.9,5.6C97.1,66.8,94.2,68.9,90.5,68.9L90.5,68.9z M86.1,47.2c0,3.6,1.3,6.3,4.1,6.3c2.8,0,4.1-2.7,4.1-6.3   c0-3.5-1.3-6.3-4.1-6.3S86.1,43.6,86.1,47.2L86.1,47.2z M90,60.5c-3,0-3.9,1.3-3.9,3c0,1.7,1.4,3,3.9,3c3,0,4.2-1.2,4.2-3   C94.3,62.1,93.7,60.5,90,60.5L90,60.5z"/>
	<path class="st0" d="M107.3,60c-4.1,0-7.7-2.8-7.7-10.8c0-9.2,4.5-11,7.8-11c4.1,0,6.1,3,6.6,5.6c0.1,0.4,0.1,0.8,0.1,1.2   c0,1.6-0.9,2.4-2.4,2.4h-8.4c-0.8,0-0.9,0.3-0.9,1v1.1c0,4.2,1,7.7,4.9,7.7c1.8,0,2.5-0.6,3.3-1.3c0.3-0.3,0.6-0.6,1.1-0.6   c0.7,0,1.3,0.4,1.3,1.1c0,0.3-0.1,0.6-0.3,0.9C112,58.2,110.3,60,107.3,60L107.3,60z M103.2,43.9l-0.1,0.3c0,0.4,0.1,0.6,0.7,0.6   h6.9c0.5,0,0.7-0.2,0.7-0.6c-0.1-1.2-1-3.3-4.2-3.3C104.8,40.9,103.7,42.8,103.2,43.9L103.2,43.9z"/>
	<path class="st2" d="M61.9,34c0,1-0.8,1.9-1.9,1.9c-1,0-1.9-0.8-1.9-1.9c0-1,0.8-1.9,1.9-1.9C61.1,32.2,61.9,33,61.9,34L61.9,34z"/>
	<path class="st0" d="M112.98,34.18c1.1,0,1.97,0.69,1.97,1.97s-0.9,1.97-1.97,1.97c-1.11,0-1.97-0.69-1.97-1.97   S111.9,34.18,112.98,34.18z M112.98,37.73c0.89,0,1.54-0.5,1.54-1.58c0-1.06-0.68-1.58-1.54-1.58c-0.89,0-1.54,0.5-1.54,1.58   C111.44,37.21,112.13,37.73,112.98,37.73z M112.19,35.17c0.15-0.04,0.5-0.08,0.76-0.08c0.42,0,0.77,0.16,0.77,0.59   c0,0.32-0.23,0.5-0.54,0.51l0.22,0.11l0.58,0.83h-0.47l-0.56-0.79l-0.36-0.12v0.91h-0.4V35.17z M112.59,35.47V36h0.25   c0.3,0,0.46-0.08,0.46-0.3c0-0.17-0.15-0.27-0.43-0.27C112.76,35.43,112.65,35.43,112.59,35.47z"/>
</g>
<div xmlns="" id="coplmfnphahpcknbchcehdikbdieognn" style="all: initial; font-size: 16px !important"/></svg>