<svg class="fill-current mx-auto header_logo__3JSdF" xmlns="http://www.w3.org/2000/svg" viewBox="0 0 155 24"><defs></defs>
  <path id="twominds" fill="rgb(107, 114, 94)" d="M5.5,5.6v4.5h3.5V12H5.5v5.9c0,1.1,0.1,1.7,0.2,2c0.3,0.6,0.9,1.1,2,1.1c0.8,0,1.2,0,1.2,0
	v2.4c-0.5,0-1,0-1.6,0c-3-0.1-4.7-1.6-4.7-5.5V12H0v-1.9h2.6V5.6H5.5z M19.7,23.5l3.7-9.4l3.7,9.4h2.1l5.5-13.4H32l-3.8,10l-3.7-10
	h-2.1l-3.7,10l-3.8-10h-2.8l5.5,13.4H19.7z M44.1,24c4.3,0,7.6-3.3,7.6-7.3s-3.3-7.2-7.6-7.2s-7.6,3.3-7.6,7.2S39.8,24,44.1,24z
	 M44.1,21.8c-2.8,0-4.8-2.1-4.8-5s2.1-5,4.8-5c2.8,0,4.8,2.1,4.8,5S46.9,21.8,44.1,21.8z M78.6,23.4v-7.6c0-2.2,2-3.9,3.9-3.9
	c2,0,2.8,1.1,2.8,3.6v7.9h2.8v-7.6c0-2.2,2.1-3.9,4-3.9c2,0,2.8,1.1,2.8,3.6v7.9h2.8v-8c0-3.3-1.1-5.8-4.7-5.8c-2.2,0-4.2,1.4-5.2,3
	c-0.5-1.7-1.8-3-4.4-3c-2.2,0-4.1,1.3-5,2.8v-2.3h-2.7v13.3H78.6z M105.5,5.6V2.5h-2.8v3.1H105.5z M105.5,23.4V10.1h-2.8v13.3H105.5
	z M113.2,23.4v-7.6c0-2.2,2.4-3.9,4.3-3.9c2,0,3.1,1.1,3.1,3.7v7.8h2.8v-8c0-3.3-1.4-5.8-5-5.8c-2.2,0-4.5,1.3-5.4,2.8v-2.3h-2.7
	v13.3H113.2z M133.4,23.9c1.8,0,4-0.9,5.1-2.6l0.2,2.1h2.5V0h-2.8v12c-1.2-1.7-3.3-2.4-5-2.4c-3.5,0-6.4,3-6.4,7.1
	C127,21,129.9,23.9,133.4,23.9z M134.7,21.7c-2.1,0-4.3-1.7-4.3-5s2.1-5,4.3-5c2,0,4.5,1.5,4.5,5C139.1,20.3,136.6,21.7,134.7,21.7z
	 M150,23.9c3.2,0,5-1.8,5-4.4c0-2.1-1.4-3.6-4.5-4.3c-1.6-0.4-2.4-0.9-2.4-1.9c0-1,0.6-1.7,2.2-1.7c1.3,0,2.7,0.6,3.7,1.2l0.5-2
	c-0.2-0.1-2.1-1.2-4.2-1.2c-3.4,0-4.7,2-4.7,4.1c0,1.8,1.2,3.4,4.1,4.1c2.2,0.5,2.9,1.2,2.9,2.1c0,1.3-1,1.9-2.5,1.9
	c-2,0-3.6-1-4.5-1.5l-0.5,2.1C145.2,22.6,147.2,23.9,150,23.9z"></path>
  <path id=":" fill="rgb(107, 114, 94)" d="M65,14.4V11h-3v3.4H65z M65,24v-3.4h-3V24H65z"></path>
</svg>