<svg width="354.283" height="63.058" viewBox="0 0 354.283 63.058" xmlns="http://www.w3.org/2000/svg">
    <title>
      Logo
    </title>
    <g transform="translate(-218.859 -364.471)">
      <path d="M355.36,427.491V397.925h23.527v-6.49H355.36V371.152h25.78v-6.49H348.33v62.829Z" fill="#1a1818"></path>
      <rect width="7.031" height="62.829" transform="translate(388.989 364.663)" fill="#1a1818"></rect>
      <path d="M413.6,427.491v-50.84l38.4,50.84h5.679V364.663h-7.03v50.3l-37.95-50.3h-6.129v62.829Z" fill="#1a1818"></path>
      <rect width="7.031" height="62.829" transform="translate(469.255 364.663)" fill="#1a1818"></rect>
      <path d="M508.766,427.491V371.152h19.513v-6.49H484.607v6.49h17.127v56.339Z" fill="#1a1818"></path>
      <path d="M551.237,427.491v-25.78l21.9-37.048h-7.572L547.813,394.77l-17.938-30.107h-7.753l22.085,37.048v25.78Z" fill="#1a1818"></path>
      <path d="M340.579,390.182a31.685,31.685,0,0,1,.536,5.818H341.1a31.529,31.529,0,0,1-22.048,30.081l-1.753-6.54A24.814,24.814,0,0,0,334.367,396h-.014a24.933,24.933,0,0,0-.331-4.061Z" fill="#57842f"></path>
      <path d="M302.747,365.222a31.552,31.552,0,0,1,36.673,20.556l-6.551,1.756A24.84,24.84,0,0,0,304.5,371.75Z" fill="#af3171"></path>
      <path d="M289.011,409.8a24.985,24.985,0,0,0,3.061,3.717,24.689,24.689,0,0,0,17.512,7.253h0a25.181,25.181,0,0,0,3.27-.214l1.763,6.576a31.75,31.75,0,0,1-5.033.4h0a31.406,31.406,0,0,1-20.573-7.637Z" fill="#1a1818"></path>
      <path d="M279.057,387.266c.454-1.172.943-2.333,1.473-3.473a34.878,34.878,0,0,1,6.852-10.165,31.592,31.592,0,0,1,10.208-6.782c.262-.108.527-.213.793-.314l1.756,6.553a24.792,24.792,0,0,0-8,5.324,28.264,28.264,0,0,0-5.478,8.21c-.1.215-.2.43-.295.647Z" fill="#009edf"></path>
      <path d="M277.8,425.909V411.648a34.529,34.529,0,0,1-7.7,8.948,31.583,31.583,0,1,1-4.878-52.336A36.775,36.775,0,0,1,277.3,378.768l-5.414,4.014a30.013,30.013,0,0,0-9.831-8.58,24.759,24.759,0,1,0,3.821,41.137,29.745,29.745,0,0,0,7.223-9.028,62.55,62.55,0,0,0,3.22-6.944H252.93v-6.735h31.632v33.277Z" fill="#1a1818"></path>
    </g>
</svg>