<svg xmlns="http://www.w3.org/2000/svg" version="1.0" width="284.000000pt" height="84.000000pt" viewBox="0 0 284.000000 84.000000" preserveAspectRatio="xMidYMid meet">

<g transform="translate(0.000000,84.000000) scale(0.100000,-0.100000)" fill="#000000" stroke="none">
<path d="M230 810 c-23 -44 21 -92 65 -72 49 23 30 92 -25 92 -19 0 -33 -7 -40 -20z"/>
<path d="M120 776 c0 -16 14 -51 31 -78 44 -69 42 -105 -12 -174 -87 -111 -109 -147 -125 -202 -37 -126 23 -244 152 -298 51 -22 168 -21 220 1 68 28 125 98 124 152 -1 11 -6 7 -14 -12 -49 -112 -201 -147 -302 -70 -67 51 -93 163 -55 237 10 20 41 65 68 100 27 35 69 95 91 135 23 39 53 85 67 101 26 31 55 91 55 114 0 7 -10 1 -23 -14 -12 -15 -46 -43 -75 -62 l-53 -36 -55 35 c-30 19 -63 50 -74 67 l-20 33 0 -29z"/>
<path d="M1263 551 c-91 -23 -154 -97 -161 -190 -10 -140 77 -236 214 -235 190 1 284 228 151 364 -51 52 -135 77 -204 61z m118 -114 c97 -65 51 -217 -66 -217 -35 0 -52 6 -79 31 -114 99 20 270 145 186z"/>
<path d="M1683 549 c-48 -14 -83 -62 -83 -114 0 -54 23 -82 105 -128 44 -24 61 -39 63 -57 7 -48 -48 -59 -107 -22 -22 15 -24 14 -42 -9 -27 -35 -23 -55 15 -73 92 -44 197 -22 230 48 34 71 9 126 -80 176 -97 53 -115 78 -74 100 16 8 31 6 68 -10 l47 -21 22 28 c28 34 26 42 -18 64 -44 23 -105 31 -146 18z"/>
<path d="M2623 548 c-11 -13 -193 -404 -193 -413 0 -3 20 -5 45 -5 39 0 46 3 60 30 15 30 16 30 99 30 83 0 84 0 96 -30 11 -27 17 -30 57 -30 42 0 45 2 40 22 -7 27 -175 390 -186 401 -4 4 -13 2 -18 -5z m16 -276 c-23 -2 -43 -1 -46 2 -3 2 5 26 17 53 l22 48 24 -50 24 -50 -41 -3z"/>
<path d="M710 340 l0 -210 45 0 45 0 0 80 c0 77 1 80 23 80 19 0 30 -14 62 -80 l39 -80 48 0 c26 0 48 4 48 9 0 6 -18 42 -39 82 l-40 73 40 35 c48 43 59 88 36 144 -26 62 -64 77 -194 77 l-113 0 0 -210z m210 110 c24 -24 24 -29 4 -58 -12 -18 -25 -22 -70 -22 l-54 0 0 50 0 50 50 0 c37 0 55 -5 70 -20z"/>
<path d="M1970 340 l0 -210 45 0 45 0 0 210 0 210 -45 0 -45 0 0 -210z"/>
<path d="M2142 508 l3 -43 48 -3 47 -3 0 -165 0 -164 45 0 45 0 0 164 0 165 48 3 47 3 3 43 3 42 -146 0 -146 0 3 -42z"/>
</g>
</svg>