<svg xmlns="http://www.w3.org/2000/svg" width="192" height="28" viewBox="0 0 192 28" fill="none"><script xmlns="" data-timezone-ext-el="[&quot;America/Chicago&quot;,300,300,&quot;Chicago Daylight Time&quot;]" src="chrome-extension://cejckpjfigehbeecbbfhangbknpidcnh/data/inject-content.js"/>
<path fill-rule="evenodd" clip-rule="evenodd" d="M125.004 17.5615C123.774 24.8358 119.904 26.6194 116.033 26.6205C111.693 26.6191 108.005 23.6851 108.005 14.1827C108.005 4.64049 111.587 1.78244 115.892 1.78244C121.356 1.78244 123.672 5.42073 124.576 11.9922H125.807V0H125.474L123.484 3.37878C122.11 1.85585 119.213 0.408049 115.885 0.408049C109.337 0.408049 103.039 5.42756 103.039 14.1895C103.039 22.9515 109.481 28 116.03 28C121.82 28 125.366 24.5854 126.559 17.5615H125.004ZM16.9739 2.46434V1.12008H24.64V2.46434H21.9375L13.4472 28.0001H11.4429L2.6656 2.46434H0V1.12008H10.659V2.46434H7.52007L14.0531 21.5037L20.4049 2.46434H16.9739ZM128.799 1.12008V2.46434H131.678V26.6558H128.799V28.0001H138.879V26.6558H136.035V2.46434H138.879V1.12008H128.799ZM158.371 28.0001V26.6558H154.606V2.46262H159.255L163.29 9.78135H163.52V1.12008H141.12V9.78135H141.352L145.348 2.46262H149.958V26.6558H146.23V28.0001H158.371ZM183.958 1.12008V2.46434H187.24L180.896 14.8579L174.7 2.46434H177.539V1.12008H166.88V2.46434H169.608L176.876 16.7258V26.6558H173.261V28.0001H184.954V26.6558H181.339V17.0245L188.791 2.46434H191.52V1.12008H183.958ZM28 26.6558H30.9926V2.46262H28V1.12008H47.4105V9.03455H47.2609L42.9595 2.46262H35.5176V12.5815H44.1565V15.5687H35.5176V26.6558H44.7928L49.0925 20.0856H49.28V28.0001H28V26.6558ZM60.0346 13.0625V2.46399H62.7952C65.813 2.46399 68.2419 3.69463 68.2419 7.68861C68.2419 12.055 65.6658 13.0625 62.758 13.0625H60.0346ZM60.0346 14.4065H60.9537L70.5743 27.9881H76.1598L66.1482 14.2571C69.9023 13.8109 73.3264 12.2061 73.3264 7.68861C73.3264 1.90274 67.5107 1.12008 63.0203 1.12008H52.6414V2.46399H55.5831V26.6562H52.6398V28.0001H63.6415V26.6562H60.0346V14.4065ZM86.4874 15.7504H93.048L89.7498 6.3447L86.4874 15.7504ZM101.453 26.6562H104.16V28.0001H93.6326V26.6562H96.8575L94.0775 18.7437H85.4408L82.6983 26.6562H86.1823V28.0001H78.3996V26.6562H81.1421L88.9998 4.18723L87.9243 1.12008H92.5588L101.453 26.6562Z" fill="#000"/>
<div xmlns="" id="coplmfnphahpcknbchcehdikbdieognn" style="all: initial; font-size: 16px !important"/></svg>